<mxfile host="app.diagrams.net" modified="2022-07-18T02:47:46.966Z" agent="5.0 (Windows NT 10.0; Win64; x64) AppleWebKit/537.36 (KHTML, like Gecko) Chrome/103.0.5060.114 Safari/537.36 Edg/103.0.1264.62" etag="-jI_Vg3fvTgdYzWJ8zD9" version="20.1.1" type="github">
  <diagram id="R2lEEEUBdFMjLlhIrx00" name="Page-1">
    <mxGraphModel dx="782" dy="476" grid="1" gridSize="10" guides="1" tooltips="1" connect="1" arrows="1" fold="1" page="1" pageScale="1" pageWidth="850" pageHeight="1100" math="0" shadow="0" extFonts="Permanent Marker^https://fonts.googleapis.com/css?family=Permanent+Marker">
      <root>
        <mxCell id="0" />
        <mxCell id="1" parent="0" />
        <mxCell id="Yqo0PfWgPZK24vqxgkiH-1" value="HRJ 的工具链" style="rounded=0;whiteSpace=wrap;html=1;fontStyle=1;fillColor=#dae8fc;strokeColor=#6c8ebf;" vertex="1" parent="1">
          <mxGeometry x="320" y="50" width="120" height="30" as="geometry" />
        </mxCell>
        <mxCell id="Yqo0PfWgPZK24vqxgkiH-19" value="Dev C++ 5.11" style="swimlane;" vertex="1" parent="1">
          <mxGeometry x="60" y="120" width="260" height="250" as="geometry">
            <mxRectangle x="60" y="120" width="110" height="30" as="alternateBounds" />
          </mxGeometry>
        </mxCell>
        <mxCell id="Yqo0PfWgPZK24vqxgkiH-9" value="C:\Program Files (x86)\Dev-Cpp" style="whiteSpace=wrap;html=1;" vertex="1" parent="Yqo0PfWgPZK24vqxgkiH-19">
          <mxGeometry x="80" y="30" width="100" height="40" as="geometry" />
        </mxCell>
        <mxCell id="Yqo0PfWgPZK24vqxgkiH-10" value="devcpp 本体" style="whiteSpace=wrap;html=1;" vertex="1" parent="Yqo0PfWgPZK24vqxgkiH-19">
          <mxGeometry x="10" y="120" width="100" height="40" as="geometry" />
        </mxCell>
        <mxCell id="Yqo0PfWgPZK24vqxgkiH-12" value="MinGW64" style="whiteSpace=wrap;html=1;" vertex="1" parent="Yqo0PfWgPZK24vqxgkiH-19">
          <mxGeometry x="150" y="120" width="100" height="40" as="geometry" />
        </mxCell>
        <mxCell id="Yqo0PfWgPZK24vqxgkiH-14" value="bin/clang-format.exe" style="rounded=0;whiteSpace=wrap;html=1;" vertex="1" parent="Yqo0PfWgPZK24vqxgkiH-19">
          <mxGeometry x="150" y="190" width="100" height="40" as="geometry" />
        </mxCell>
        <mxCell id="Yqo0PfWgPZK24vqxgkiH-11" value="" style="edgeStyle=elbowEdgeStyle;elbow=vertical;html=1;rounded=0;" edge="1" parent="Yqo0PfWgPZK24vqxgkiH-19" source="Yqo0PfWgPZK24vqxgkiH-9" target="Yqo0PfWgPZK24vqxgkiH-10">
          <mxGeometry relative="1" as="geometry" />
        </mxCell>
        <mxCell id="Yqo0PfWgPZK24vqxgkiH-13" value="" style="edgeStyle=elbowEdgeStyle;elbow=vertical;html=1;rounded=0;" edge="1" parent="Yqo0PfWgPZK24vqxgkiH-19" source="Yqo0PfWgPZK24vqxgkiH-9" target="Yqo0PfWgPZK24vqxgkiH-12">
          <mxGeometry relative="1" as="geometry" />
        </mxCell>
        <mxCell id="Yqo0PfWgPZK24vqxgkiH-15" value="" style="endArrow=classic;html=1;rounded=0;" edge="1" parent="Yqo0PfWgPZK24vqxgkiH-19" source="Yqo0PfWgPZK24vqxgkiH-12" target="Yqo0PfWgPZK24vqxgkiH-14">
          <mxGeometry width="50" height="50" relative="1" as="geometry">
            <mxPoint x="-70" y="140" as="sourcePoint" />
            <mxPoint x="-20" y="90" as="targetPoint" />
          </mxGeometry>
        </mxCell>
        <mxCell id="Yqo0PfWgPZK24vqxgkiH-20" value="&lt;b&gt;Sublime Text&lt;/b&gt;" style="rounded=0;whiteSpace=wrap;html=1;" vertex="1" parent="1">
          <mxGeometry x="480" y="120" width="120" height="40" as="geometry" />
        </mxCell>
        <mxCell id="Yqo0PfWgPZK24vqxgkiH-21" value="clang-format extension" style="rounded=0;whiteSpace=wrap;html=1;" vertex="1" parent="1">
          <mxGeometry x="490" y="200" width="100" height="40" as="geometry" />
        </mxCell>
        <mxCell id="Yqo0PfWgPZK24vqxgkiH-22" value="" style="endArrow=classic;html=1;rounded=0;exitX=0.5;exitY=1;exitDx=0;exitDy=0;entryX=0.5;entryY=0;entryDx=0;entryDy=0;" edge="1" parent="1" source="Yqo0PfWgPZK24vqxgkiH-20" target="Yqo0PfWgPZK24vqxgkiH-21">
          <mxGeometry width="50" height="50" relative="1" as="geometry">
            <mxPoint x="350" y="220" as="sourcePoint" />
            <mxPoint x="400" y="170" as="targetPoint" />
          </mxGeometry>
        </mxCell>
        <object label="" id="Yqo0PfWgPZK24vqxgkiH-23">
          <mxCell style="endArrow=classic;exitX=0.5;exitY=0;exitDx=0;exitDy=0;entryX=0;entryY=0.5;entryDx=0;entryDy=0;curved=1;html=1;startArrow=none;" edge="1" parent="1" source="Yqo0PfWgPZK24vqxgkiH-31" target="Yqo0PfWgPZK24vqxgkiH-21">
            <mxGeometry width="50" height="50" relative="1" as="geometry">
              <mxPoint x="400" y="270" as="sourcePoint" />
              <mxPoint x="400" y="160" as="targetPoint" />
              <Array as="points">
                <mxPoint x="420" y="230" />
              </Array>
            </mxGeometry>
          </mxCell>
        </object>
        <mxCell id="Yqo0PfWgPZK24vqxgkiH-27" value="" style="endArrow=none;exitX=1;exitY=0.5;exitDx=0;exitDy=0;curved=1;html=1;entryX=0.5;entryY=1;entryDx=0;entryDy=0;" edge="1" parent="1" source="Yqo0PfWgPZK24vqxgkiH-14" target="Yqo0PfWgPZK24vqxgkiH-31">
          <mxGeometry width="50" height="50" relative="1" as="geometry">
            <mxPoint x="310" y="330" as="sourcePoint" />
            <mxPoint x="410" y="320" as="targetPoint" />
            <Array as="points">
              <mxPoint x="380" y="350" />
            </Array>
          </mxGeometry>
        </mxCell>
        <mxCell id="Yqo0PfWgPZK24vqxgkiH-31" value="Provide binary file" style="text;html=1;strokeColor=none;fillColor=none;align=center;verticalAlign=middle;whiteSpace=wrap;rounded=0;" vertex="1" parent="1">
          <mxGeometry x="380" y="280" width="60" height="30" as="geometry" />
        </mxCell>
      </root>
    </mxGraphModel>
  </diagram>
</mxfile>
